HIERARCHY
ROOT Hips
{
	OFFSET 0.000000 8.830580 0.000000
	CHANNELS 6 Xposition Yposition Zposition Zrotation Yrotation Xrotation 
	JOINT Spine
	{
		OFFSET 0.000000 0.010000 0.000000
		CHANNELS 3 Zrotation Yrotation Xrotation
		JOINT Spine1
		{
			OFFSET 0.000000 2.459130 0.000000
			CHANNELS 3 Zrotation Yrotation Xrotation
			JOINT Neck
			{
				OFFSET 0.000000 2.484630 0.000000
				CHANNELS 3 Zrotation Yrotation Xrotation
				JOINT Head_virtual
				{
					OFFSET 0.000000 0.000000 0.000000
					CHANNELS 3 Zrotation Yrotation Xrotation
					JOINT Head
					{
						OFFSET 0.000000 0.927525 0.000000
						CHANNELS 3 Zrotation Yrotation Xrotation
						End Site
						{
							OFFSET 0.000000 0.000000 0.000000
						}
					}
				}
				JOINT LeftUpArm_virtual
				{
					OFFSET 0.000000 0.000000 0.000000
					CHANNELS 3 Zrotation Yrotation Xrotation
					JOINT LeftUpArm
					{
						OFFSET 1.248820 0.000000 0.000000
						CHANNELS 3 Zrotation Yrotation Xrotation
						JOINT LeftForeArm
						{
							OFFSET 2.597580 0.000000 0.000000
							CHANNELS 3 Zrotation Yrotation Xrotation
							JOINT LeftHand
							{
								OFFSET 2.455420 0.000000 0.000000
								CHANNELS 3 Zrotation Yrotation Xrotation
								End Site
								{
									OFFSET 0.000000 0.000000 0.000000
								}
							}
						}
					}
				}
				JOINT RightUpArm_virtual
				{
					OFFSET -0.000000 -0.000000 -0.000000
					CHANNELS 3 Zrotation Yrotation Xrotation
					JOINT RightUpArm
					{
						OFFSET -1.248820 -0.000000 -0.000000
						CHANNELS 3 Zrotation Yrotation Xrotation
						JOINT RightForeArm
						{
							OFFSET -2.597580 -0.000000 -0.000000
							CHANNELS 3 Zrotation Yrotation Xrotation
							JOINT RightHand
							{
								OFFSET -2.455420 -0.000000 -0.000000
								CHANNELS 3 Zrotation Yrotation Xrotation
								End Site
								{
									OFFSET 0.000000 0.000000 0.000000
								}
							}
						}
					}
				}
			}
		}
	}
	JOINT LeftUpLeg
	{
		OFFSET 1.271939 0.000000 0.000000
		CHANNELS 3 Zrotation Yrotation Xrotation
		JOINT LeftLowLeg
		{
			OFFSET 0.000000 -4.342910 0.000000
			CHANNELS 3 Zrotation Yrotation Xrotation
			JOINT LeftFoot
			{
				OFFSET 0.000000 -4.487670 0.000000
				CHANNELS 3 Zrotation Yrotation Xrotation
				JOINT LeftToeBase
				{
					OFFSET 0.000000 0.000000 1.515070
					CHANNELS 3 Zrotation Yrotation Xrotation
					End Site
					{
						OFFSET 0.000000 0.000000 0.000000
					}
				}
			}
		}
	}
	JOINT RightUpLeg
	{
		OFFSET -1.271939 0.000000 0.000000
		CHANNELS 3 Zrotation Yrotation Xrotation
		JOINT RightLowLeg
		{
			OFFSET 0.000000 -4.342910 0.000000
			CHANNELS 3 Zrotation Yrotation Xrotation
			JOINT RightFoot
			{
				OFFSET 0.000000 -4.487670 0.000000
				CHANNELS 3 Zrotation Yrotation Xrotation
				JOINT RightToeBase
				{
					OFFSET 0.000000 0.000000 1.515070
					CHANNELS 3 Zrotation Yrotation Xrotation
					End Site
					{
						OFFSET 0.000000 0.000000 0.000000
					}
				}
			}
		}
	}
}
MOTION
Frames: 11
Frame Time: 0.041667
-17.967315 9.165874 43.267837 -174.201256 5.146291 -173.036829 2.141051 0.365992 -10.650820 3.207311 0.386642 -6.601931 0.000000 0.000000 0.000000 -7.283577 -3.246351 22.945924 13.634628 10.357416 -87.521886 -24.791100 9.843370 -9.321680 12.663300 -12.779400 -27.891399 0.000000 -8.537450 0.000000 26.336901 16.735399 30.288000 20.022499 -5.464620 -6.500650 -5.886940 1.589300 -53.247799 0.000000 15.527300 0.000000 -32.582001 -10.411000 51.375801 5.328106 -0.956603 -4.490667 0.000000 0.000000 6.833220 -13.269435 14.539658 0.258375 0.000000 0.000000 -38.077000 6.104181 2.961369 -6.959470 0.000000 0.000000 10.010100 14.311881 -14.858794 5.165993 0.000000 0.000000 -34.676800 
-17.963438 9.165636 43.262724 -174.204894 5.165328 -173.008717 1.945182 0.316886 -10.784167 3.366573 0.390848 -6.626705 0.000000 0.000000 0.000000 -7.110217 -3.391022 23.090458 13.632949 10.490870 -87.482560 -24.743401 9.810100 -9.448800 12.669100 -12.807100 -27.461800 0.000000 -8.674830 0.000000 26.337900 16.790701 30.081900 20.053900 -5.467820 -6.500230 -5.967660 1.732760 -52.981701 0.000000 15.409700 0.000000 -32.692501 -10.386600 51.478600 5.332353 -0.920588 -4.509553 0.000000 0.000000 6.886080 -13.305198 14.558110 0.205291 0.000000 0.000000 -38.030500 6.081855 3.726640 -6.827495 0.000000 0.000000 9.778690 14.507859 -15.463402 4.998787 0.000000 0.000000 -34.638599 
-17.959147 9.165499 43.258102 -174.177510 5.161214 -172.992569 1.734008 0.241185 -10.851197 3.626701 0.376130 -6.751656 0.000000 0.000000 0.000000 -6.999488 -3.470750 23.264018 13.693748 10.564618 -87.376924 -24.759300 9.781000 -9.398560 12.754200 -12.840700 -27.662201 0.000000 -8.664040 0.000000 26.292801 16.714800 30.078199 20.059000 -5.527570 -6.603200 -6.036200 1.971980 -52.702400 0.000000 15.397500 0.000000 -32.761799 -10.473200 51.561298 5.377847 -0.890025 -4.521977 0.000000 0.000000 6.941730 -13.337878 14.540950 0.153827 0.000000 0.000000 -38.011700 6.183418 2.778004 -6.950879 0.000000 0.000000 10.039000 14.216697 -14.706194 5.172313 0.000000 0.000000 -34.634899 
-17.955499 9.165057 43.254201 -174.170543 5.153448 -172.982571 1.462942 0.121934 -10.876325 4.010896 0.336234 -6.931260 0.000000 0.000000 0.000000 -6.928797 -3.539687 23.488748 13.649532 10.615324 -87.288518 -24.756500 9.819540 -9.432630 12.696400 -12.827000 -27.574400 0.000000 -8.696330 0.000000 26.248501 16.646700 29.888599 20.055401 -5.538660 -6.703980 -6.158780 2.217460 -52.510799 0.000000 15.423100 0.000000 -32.693600 -10.578000 51.384998 5.402660 -0.877246 -4.533233 0.000000 0.000000 6.993680 -13.367807 14.526777 0.104026 0.000000 0.000000 -38.011801 6.212195 2.765090 -6.930368 0.000000 0.000000 10.035400 14.215592 -14.699170 5.152053 0.000000 0.000000 -34.652399 
-17.951894 9.164526 43.250147 -174.164041 5.116688 -172.972305 1.169004 -0.036866 -10.892103 4.462180 0.264507 -7.135047 0.000000 0.000000 0.000000 -6.872837 -3.599486 23.753832 13.612840 10.667386 -87.223688 -24.755400 9.853440 -9.624790 12.551800 -12.791500 -27.494699 0.000000 -8.734330 0.000000 26.319599 16.595900 29.858999 20.030300 -5.459290 -6.719310 -6.293820 2.406120 -52.302601 0.000000 15.435400 0.000000 -32.725700 -10.626000 50.766300 5.432406 -0.910025 -4.533043 0.000000 0.000000 7.010990 -13.417722 14.513992 0.061358 0.000000 0.000000 -38.032200 6.242994 2.753570 -6.895260 0.000000 0.000000 10.012100 14.230202 -14.706635 5.107244 0.000000 0.000000 -34.607700 
-17.949267 9.164290 43.245084 -174.156402 5.090004 -172.965294 0.878597 -0.192293 -10.947362 4.951357 0.191885 -7.265351 0.000000 0.000000 0.000000 -6.831509 -3.658856 24.022168 13.541270 10.713604 -87.185299 -24.866800 9.890140 -9.625890 12.544300 -12.738700 -27.563801 0.000000 -8.675480 0.000000 26.348200 16.465700 29.639799 20.015499 -5.463970 -6.864350 -6.432290 2.742670 -52.278999 0.000000 15.447600 0.000000 -32.642601 -10.470100 50.430000 5.452799 -0.906853 -4.502565 0.000000 0.000000 6.993630 -13.409913 14.501195 0.046274 0.000000 0.000000 -38.011101 6.268001 2.729567 -6.842741 0.000000 0.000000 9.969460 14.227359 -14.701340 5.089644 0.000000 0.000000 -34.589600 
-17.947251 9.163791 43.239932 -174.147170 5.089623 -172.919284 0.602628 -0.317005 -10.837568 5.436757 0.167610 -7.770914 0.000000 0.000000 0.000000 -6.750864 -3.835709 24.385797 13.380259 10.734849 -87.082721 -24.883200 9.951940 -9.457960 12.416300 -12.612900 -27.647499 0.000000 -8.707130 0.000000 26.395201 16.458099 29.541100 19.967400 -5.513950 -6.774320 -6.570630 2.998390 -52.134201 0.000000 15.502300 0.000000 -32.547401 -10.381300 50.140999 5.468405 -0.854237 -4.493211 0.000000 0.000000 6.957820 -13.421409 14.457999 0.025198 0.000000 0.000000 -37.979700 6.285982 2.796617 -6.846443 0.000000 0.000000 9.955480 14.231404 -14.771693 5.053431 0.000000 0.000000 -34.581400 
-17.946124 9.163283 43.235480 -174.126737 5.064416 -172.916223 0.343687 -0.450776 -10.835939 5.951862 0.109062 -7.928064 0.000000 0.000000 0.000000 -6.670747 -4.044415 24.599839 13.112053 10.759849 -87.091665 -24.903299 10.007200 -9.586430 12.148800 -12.516900 -27.413500 0.000000 -8.764630 0.000000 26.297899 16.420500 29.260700 19.921600 -5.546440 -6.834850 -6.703630 3.300560 -51.917702 0.000000 15.576500 0.000000 -32.464199 -10.271800 50.051300 5.493853 -0.842428 -4.467234 0.000000 0.000000 6.951120 -13.436758 14.422700 -0.004647 0.000000 0.000000 -38.006701 6.318468 2.750012 -6.813203 0.000000 0.000000 9.946630 14.209070 -14.764142 5.043222 0.000000 0.000000 -34.568300 
-17.946038 9.162833 43.232333 -174.118092 5.087073 -172.919642 0.184724 -0.515383 -10.836744 6.279474 0.089900 -8.013640 0.000000 0.000000 0.000000 -6.628302 -4.159472 24.730156 12.921717 10.773714 -87.089257 -24.938601 9.984730 -9.488480 12.036100 -12.381100 -27.503300 0.000000 -8.760660 0.000000 26.252300 16.401800 29.289101 19.872999 -5.618850 -6.893870 -6.764460 3.569930 -51.650398 0.000000 15.610000 0.000000 -32.401798 -10.249400 49.896400 5.497160 -0.832608 -4.430579 0.000000 0.000000 6.939500 -13.447531 14.433897 -0.035831 0.000000 0.000000 -38.014999 6.287921 3.538125 -6.687314 0.000000 0.000000 9.762040 14.448577 -15.376717 4.857167 0.000000 0.000000 -34.540400 
-17.946401 9.162276 43.227614 -174.106123 5.084059 -172.935100 -0.009438 -0.648759 -10.839703 6.733410 0.010816 -8.104270 0.000000 0.000000 0.000000 -6.631729 -4.246194 24.903376 12.650527 10.761345 -87.099611 -24.986799 10.078100 -9.369810 11.847300 -12.251200 -27.611500 0.000000 -8.723830 0.000000 26.134600 16.301201 29.163500 19.960800 -5.345950 -7.416030 -7.072870 3.630910 -50.818600 0.000000 15.651300 0.000000 -32.110802 -10.214400 49.634701 5.503324 -0.892154 -4.386553 0.000000 0.000000 6.947040 -13.468096 14.477278 -0.100388 0.000000 0.000000 -37.948799 6.295142 3.648987 -6.630372 0.000000 0.000000 9.744490 14.465887 -15.483295 4.806422 0.000000 0.000000 -34.473000 
-17.947509 9.161877 43.223310 -174.103517 5.078206 -172.966276 -0.135048 -0.751213 -10.826742 7.059874 -0.055626 -8.177604 0.000000 0.000000 0.000000 -6.622414 -4.365494 25.073141 12.352903 10.762294 -87.157358 -24.963600 10.132300 -9.397720 11.585300 -12.159200 -27.511999 0.000000 -8.639620 0.000000 26.033600 16.221399 28.838100 19.974100 -5.376290 -7.451710 -7.184380 3.935930 -50.533600 0.000000 15.724900 0.000000 -31.961800 -10.146800 49.565201 5.496905 -0.983393 -4.330529 0.000000 0.000000 6.950240 -13.471338 14.554355 -0.146192 0.000000 0.000000 -37.918501 6.294888 3.690333 -6.569933 0.000000 0.000000 9.743590 14.473311 -15.538729 4.764837 0.000000 0.000000 -34.451700 
